<svg width="55" height="54" viewBox="0 0 55 54" fill="none" xmlns="http://www.w3.org/2000/svg">
<path d="M18.3774 46.3837H10.7982C9.92605 46.3837 9.21919 45.6767 9.21919 44.8047V31.9357C9.21919 31.0636 9.92613 30.3567 10.7982 30.3567H18.3775C19.2496 30.3567 19.9565 31.0636 19.9565 31.9357V44.8047C19.9565 45.6767 19.2495 46.3837 18.3774 46.3837Z" fill="#E6123D"/>
<path d="M14.5878 42.4362C14.3802 42.4362 14.1765 42.5206 14.0296 42.6675C13.8828 42.8145 13.7983 43.0181 13.7983 43.2257C13.7983 43.4334 13.8827 43.6371 14.0296 43.7839C14.1765 43.9307 14.3802 44.0153 14.5878 44.0153C14.7955 44.0153 14.9992 43.9308 15.1459 43.7839C15.2928 43.6371 15.3774 43.4334 15.3774 43.2257C15.3774 43.0181 15.2929 42.8144 15.1459 42.6675C14.9991 42.5205 14.7954 42.4362 14.5878 42.4362Z" fill="#424750"/>
<path d="M44.9413 21.9741C44.7336 21.9741 44.5299 22.0585 44.3831 22.2054C44.2363 22.3523 44.1517 22.556 44.1517 22.7636C44.1517 22.9713 44.2362 23.175 44.3831 23.3217C44.5299 23.4686 44.7336 23.5531 44.9413 23.5531C45.1497 23.5531 45.3526 23.4687 45.4995 23.3217C45.647 23.175 45.7315 22.9713 45.7315 22.7636C45.7315 22.556 45.647 22.3523 45.4995 22.2054C45.3526 22.0585 45.1497 21.9741 44.9413 21.9741Z" fill="#424750"/>
<path fill-rule="evenodd" clip-rule="evenodd" d="M48.0629 15.8629C48.2723 15.8629 48.4732 15.9461 48.6213 16.0941C48.7694 16.2422 48.8524 16.443 48.8526 16.6524V46.3838C48.8526 46.8197 48.499 47.1733 48.063 47.1733H24.2298C23.2682 47.1733 22.3397 46.8253 21.615 46.1933L20.6763 45.3747C20.4205 46.4061 19.4871 47.1732 18.3776 47.1732H10.7982C9.49221 47.1732 8.42966 46.1107 8.42974 44.8046V31.9356C8.42974 30.6297 9.49221 29.5671 10.7982 29.5671H18.3775C19.1886 29.5671 19.9056 29.9772 20.3327 30.6008L22.8401 28.0933C23.1228 27.8107 23.7029 27.333 24.6948 26.8032C26.2086 25.9947 27.8515 25.4166 27.8515 25.4166V18.9113V16.6534C27.8515 16.2175 28.205 15.8639 28.641 15.8639L48.0629 15.8629ZM10.7982 45.5942H18.3774C18.8127 45.5942 19.1669 45.24 19.167 44.8047V31.9357C19.167 31.5004 18.8128 31.1462 18.3775 31.1462H15.3774V40.2412C15.3774 40.6771 15.0238 41.0307 14.5878 41.0307C14.1518 41.0307 13.7983 40.6771 13.7983 40.2412V31.1462H10.7982C10.3628 31.1462 10.0086 31.5004 10.0086 31.9357V44.8047C10.0086 45.2401 10.3628 45.5942 10.7982 45.5942ZM22.6526 45.0033L20.746 43.3405V32.4206L23.3029 29.8263C23.3029 29.8263 24.3891 28.8857 25.1206 28.4731C26.6622 27.6036 27.8493 27.262 27.8493 27.262V29.3844L27.0844 31.4197C27.1738 31.7692 27.4886 32.0136 27.8493 32.0136L41.1054 32.0146C41.7149 32.0146 42.2107 32.5104 42.2107 33.1199C42.2107 33.7294 41.7149 34.2253 41.1054 34.2253H33.1517C32.7157 34.2253 32.3622 34.5788 32.3622 35.0148C32.3622 35.4508 32.7157 35.8043 33.1517 35.8043H43.5766C44.1861 35.8043 44.682 36.3002 44.682 36.9097C44.682 37.5192 44.1861 38.015 43.5766 38.015H33.1517C32.7157 38.015 32.3622 38.3686 32.3622 38.8045C32.3622 39.2405 32.7157 39.5941 33.1517 39.5941H41.8873C42.4968 39.5941 42.9926 40.0899 42.9926 40.6994C42.9926 41.3089 42.4968 41.8047 41.8873 41.8047H33.1517C32.7157 41.8047 32.3622 42.1583 32.3622 42.5943C32.3622 43.0303 32.7157 43.3838 33.1517 43.3838H39.1942C39.8037 43.3838 40.2995 43.8796 40.2995 44.4891C40.2995 45.0987 39.8037 45.5945 39.1942 45.5945H24.2296C23.6497 45.5942 23.0897 45.3844 22.6526 45.0033ZM41.8785 44.4889C41.8785 44.8829 41.7925 45.2569 41.6394 45.5942L47.2735 45.5942V17.7777L29.4306 17.7786V30.4355L41.1053 30.4356C42.5855 30.4356 43.7896 31.6398 43.7896 33.1199C43.7896 33.5139 43.7037 33.8879 43.5765 34.2253C43.774 34.2253 43.9664 34.2474 44.152 34.288V25.3038C44.152 24.8679 44.5055 24.5143 44.9415 24.5143C45.3775 24.5143 45.731 24.8679 45.731 25.3038V35.3104C46.0636 35.7573 46.2609 36.3108 46.2609 36.9096C46.2609 38.1439 45.4233 39.1856 44.2866 39.4978C44.4686 39.8596 44.5716 40.2675 44.5716 40.6992C44.5716 42.1794 43.3674 43.3836 41.8873 43.3836H41.6394C41.7925 43.7209 41.8785 44.0949 41.8785 44.4889Z" fill="#424750"/>
<path fill-rule="evenodd" clip-rule="evenodd" d="M32.0558 17.55H36.4436V30.7125H32.0558V17.55Z" fill="#424750"/>
<path fill-rule="evenodd" clip-rule="evenodd" d="M6.57294 15.0188C6.57294 17.9593 9.06672 22.269 14.0302 28.1056C14.3671 28.5018 14.9788 28.5018 15.3157 28.1056C20.2792 22.269 22.7729 17.9593 22.7729 15.0188C22.7729 10.5453 19.1464 6.91876 14.6729 6.91876C10.1994 6.91876 6.57294 10.5453 6.57294 15.0188ZM14.6729 8.60626C18.2145 8.60626 21.0854 11.4772 21.0854 15.0188C21.0854 17.3097 18.9549 21.0984 14.6729 26.2482C10.391 21.0984 8.26044 17.3097 8.26044 15.0188C8.26044 11.4772 11.1314 8.60626 14.6729 8.60626Z" fill="#19BFD3"/>
<path fill-rule="evenodd" clip-rule="evenodd" d="M10.7073 15.0188C10.7073 17.2089 12.4828 18.9844 14.6729 18.9844C16.8631 18.9844 18.6386 17.2089 18.6386 15.0188C18.6386 12.8286 16.8631 11.0531 14.6729 11.0531C12.4828 11.0531 10.7073 12.8286 10.7073 15.0188ZM17.1198 15.0188C17.1198 16.3701 16.0243 17.4656 14.6729 17.4656C13.3216 17.4656 12.2261 16.3701 12.2261 15.0188C12.2261 13.6674 13.3216 12.5719 14.6729 12.5719C16.0243 12.5719 17.1198 13.6674 17.1198 15.0188Z" fill="#19BFD3"/>
</svg>
