<svg width="55" height="54" viewBox="0 0 55 54" fill="none" xmlns="http://www.w3.org/2000/svg">
<path fill-rule="evenodd" clip-rule="evenodd" d="M23.8099 9.51141L39.9201 14.5458V22.4298L34.5902 24.165V16.6719L17.8189 11.3253L23.8099 9.51141Z" fill="#E6123D"/>
<path fill-rule="evenodd" clip-rule="evenodd" d="M47.2466 13.319C47.206 13.1589 47.1305 13.0422 47.0282 12.9519C46.9803 12.904 46.927 12.8617 46.8693 12.8262C46.8367 12.8069 46.8029 12.7899 46.7682 12.7752C46.744 12.7614 28.0002 6.78994 28.0002 6.78994C27.8327 6.73673 27.6528 6.73673 27.4853 6.78994L8.79205 12.7378C8.43868 12.8489 8.19801 13.1762 8.19727 13.5467V33.9393C8.19758 34.3101 8.43837 34.6378 8.79205 34.7491L15.3567 36.9684C15.5242 37.0216 15.9054 35.4872 15.9054 35.4872L9.89665 33.3182V14.1678L15.5615 12.3656L31.4508 17.4221L27.7402 18.6024L13.5503 14.0888C13.1031 13.9466 12.6253 14.1938 12.4831 14.6411C12.3409 15.0883 12.5882 15.5661 13.0354 15.7083L26.8905 20.1157V30.2149C26.8905 30.6842 27.2709 31.0646 27.7402 31.0646C28.2094 31.0646 28.5899 30.6842 28.5899 30.2149V20.1157L33.4051 18.5862V24.2231C33.4051 24.6923 33.7855 25.0728 34.2548 25.0728C34.3412 25.0722 34.4271 25.0587 34.5097 25.0328L36.492 24.4007C36.9393 24.2584 37.1865 23.7807 37.0443 23.3334C36.9021 22.8862 36.4244 22.6389 35.9771 22.7811L35.1019 23.0598V18.0467L39.4914 16.6498V21.6629L38.5262 21.9697C38.0789 22.1119 37.8317 22.5896 37.9739 23.0369C38.0857 23.3888 38.412 23.6281 38.7811 23.6291C38.8676 23.6292 38.9537 23.6158 39.036 23.5892L40.5943 23.0938C40.948 22.9826 41.1888 22.6549 41.1891 22.2841V16.106L45.5837 14.7091V33.3173L44.4791 33.6699C44.0276 33.7978 43.7652 34.2674 43.893 34.719C44.0209 35.1705 44.4906 35.4329 44.9421 35.3051C44.9578 35.3006 46.6884 34.7491 46.6884 34.7491C47.0421 34.6378 47.2829 34.3101 47.2832 33.9393V13.5467C47.2814 13.4695 47.2691 13.3929 47.2466 13.319ZM34.2539 16.53L18.3647 11.4743L21.6513 10.4283L37.5405 15.484L34.2539 16.53ZM24.4544 9.53614L40.3428 14.5927L43.6294 13.5467L27.7402 8.49102L24.4544 9.53614Z" fill="#424750"/>
<path d="M12.5956 28.0125C12.1586 28.0125 11.8042 28.3669 11.8042 28.8039L11.8042 34.5531C11.8042 34.9902 12.1586 35.3445 12.5956 35.3445C13.0327 35.3445 13.3871 34.9902 13.3871 34.5531V28.8039C13.3871 28.3669 13.0327 28.0125 12.5956 28.0125Z" fill="#424750"/>
<path d="M12.5952 25.65C12.3872 25.65 12.1831 25.7346 12.036 25.8818C11.8888 26.0289 11.8042 26.233 11.8042 26.4418C11.8042 26.649 11.8888 26.8531 12.036 27.0011C12.1831 27.1482 12.3872 27.232 12.5952 27.232C12.8033 27.232 13.0073 27.1482 13.1545 27.0011C13.3016 26.8531 13.3862 26.6498 13.3862 26.4418C13.3862 26.233 13.3016 26.0289 13.1545 25.8818C13.0073 25.7346 12.8033 25.65 12.5952 25.65Z" fill="#424750"/>
<path d="M15.6327 35.4375C15.4247 35.4375 15.2206 35.5221 15.0734 35.6693C14.9263 35.8164 14.8417 36.0205 14.8417 36.2293C14.8417 36.4366 14.9263 36.6406 15.0734 36.7886C15.2206 36.9357 15.4247 37.0195 15.6327 37.0195C15.8407 37.0195 16.0448 36.9357 16.1919 36.7886C16.3391 36.6406 16.4237 36.4373 16.4237 36.2293C16.4237 36.0205 16.3391 35.8164 16.1919 35.6693C16.0448 35.5221 15.8407 35.4375 15.6327 35.4375Z" fill="#424750"/>
<path d="M41.3352 24.7959C40.866 24.7959 40.4855 25.1763 40.4855 25.6456V34.5038C40.4809 38.7253 37.0598 42.1463 32.8383 42.151H22.642C22.1728 42.151 21.7923 42.5314 21.7923 43.0007V44.7672L15.6269 40.4516L21.7923 36.136V37.9025C21.7923 38.3718 22.1728 38.7522 22.642 38.7522H30.2892C33.1037 38.7495 35.3846 36.4686 35.3874 33.6541V33.2928C35.3874 32.8236 35.0069 32.4431 34.5377 32.4431C34.0684 32.4431 33.688 32.8236 33.688 33.2928V33.6541C33.688 35.5312 32.1663 37.0528 30.2892 37.0528H23.4917V34.5038C23.4915 34.0345 23.1108 33.6543 22.6416 33.6545C22.4676 33.6546 22.2978 33.7081 22.1551 33.8079L13.6582 39.7557C13.2738 40.025 13.1806 40.5549 13.4498 40.9391C13.5066 41.0202 13.5772 41.0907 13.6582 41.1475L22.1551 47.0954C22.5397 47.3643 23.0695 47.2705 23.3383 46.8859C23.4381 46.7433 23.4916 46.5735 23.4917 46.3995V43.8504H32.8383C37.9977 43.8443 42.1789 39.6632 42.1849 34.5038V25.6456C42.1849 25.1763 41.8045 24.7959 41.3352 24.7959Z" fill="#19BFD3"/>
<path fill-rule="evenodd" clip-rule="evenodd" d="M14.8417 20.5875H23.3409V22.7875L18.8844 33.75H16.1391L20.4639 23.0696H14.8417V20.5875Z" fill="#E6123D"/>
</svg>
