<svg width="273" height="28" viewBox="0 0 273 28" fill="none" xmlns="http://www.w3.org/2000/svg">
<path d="M237.583 0.27611C237.718 0.101897 237.927 0 238.147 0H238.862C239.011 0 239.095 0.171126 239.003 0.288573L234.436 6.16069C234.301 6.33491 234.092 6.4368 233.872 6.4368H233.157C233.008 6.4368 232.924 6.26568 233.016 6.14823L237.583 0.27611Z" fill="#39AE00"/>
<path d="M228.852 1.34015C228.813 0.971571 228.528 0.7152 228.142 0.7152H225.639L225.552 0.719685C225.181 0.758274 224.924 1.04214 224.924 1.42714V3.56294L224.928 3.64995C224.967 4.01863 225.252 4.27488 225.639 4.27488H228.142L228.229 4.27039C228.599 4.23182 228.857 3.94806 228.857 3.56294V1.42714L228.852 1.34015Z" fill="#39AE00"/>
<path d="M260.744 5.82881C260.344 5.82881 260.015 5.52755 259.973 5.14101L259.969 5.05695L259.969 1.48708C259.969 1.08917 260.271 0.761646 260.66 0.719744L260.744 0.715215H262.917C263.317 0.715215 263.646 1.01622 263.688 1.40297L263.692 1.48708L263.693 2.49463L266.191 2.49446C266.591 2.49446 266.92 2.79546 266.962 3.18222L266.967 3.26632V5.05695C266.967 5.45457 266.664 5.78234 266.276 5.82428L266.191 5.82881H260.744Z" fill="#39AE00"/>
<path fill-rule="evenodd" clip-rule="evenodd" d="M55.1609 2.1456C55.1609 1.75061 55.4811 1.4304 55.8761 1.4304H58.0217C58.4167 1.4304 58.7369 1.75061 58.7369 2.1456V10.0053L58.7369 10.0128V14.304C58.7369 15.489 59.6976 16.4496 60.8825 16.4496H62.7288C62.4606 15.787 62.3129 15.0628 62.3129 14.304V12.1584C62.3129 8.99845 64.8746 6.4368 68.0345 6.4368C71.1945 6.4368 73.7561 8.99845 73.7561 12.1584V14.304C73.7561 17.464 71.1945 20.0256 68.0345 20.0256H60.8825C57.7226 20.0256 55.1609 17.464 55.1609 14.304V13.5968L55.1609 13.5888V2.1456ZM70.1801 12.1584C70.1801 10.9734 69.2195 10.0128 68.0345 10.0128C66.8495 10.0128 65.8889 10.9734 65.8889 12.1584V14.304C65.8889 15.489 66.8495 16.4496 68.0345 16.4496C69.2195 16.4496 70.1801 15.489 70.1801 14.304V12.1584Z" fill="#39AE00"/>
<path d="M23.6862 7.06175C23.6475 6.69317 23.3625 6.4368 22.9757 6.4368H17.2552L17.1678 6.44129C16.7975 6.47988 16.5401 6.76375 16.5401 7.14874V9.28454L16.5446 9.37155C16.5833 9.74023 16.8684 9.99648 17.2552 9.99648H22.9757L23.0631 9.99199C23.4334 9.95342 23.6907 9.66967 23.6907 9.28454V7.14874L23.6862 7.06175Z" fill="#39AE00"/>
<path d="M90.7624 23.5742C90.7203 23.1877 90.3913 22.8864 89.9916 22.8864H84.5443L84.4598 22.8909C84.0713 22.9329 83.7689 23.2606 83.7689 23.6583V25.4489L83.7735 25.533C83.8156 25.9198 84.1446 26.2208 84.5443 26.2208L87.0426 26.2206L87.0433 27.2281L87.0479 27.3122C87.09 27.699 87.419 28 87.819 28H89.9914L90.0759 27.9955C90.4644 27.9536 90.7668 27.626 90.7668 27.2281L90.767 23.6583L90.7624 23.5742Z" fill="#39AE00"/>
<path d="M17.328 20.7669C17.328 23.7253 14.7367 26.3612 11.7786 26.4596L11.6075 26.4624H5.87853C2.71991 26.4624 0.250689 24.0638 0.168583 20.9475L0.166504 20.7669V14.3595C0.166504 13.9749 0.424273 13.6907 0.794285 13.6521L0.8816 13.6476H3.02679C3.41321 13.6476 3.69855 13.9043 3.73734 14.2726L3.74185 14.3595L3.73446 20.7547C3.73445 21.8997 4.62768 22.8338 5.75398 22.8991L5.88006 22.9027H11.6075C12.5474 22.9027 13.6694 21.8191 13.7483 20.8716L13.7527 20.7669H10.8925C10.5057 20.7669 10.2207 20.5107 10.1819 20.142L10.1774 20.055V17.8767C10.1774 17.4918 10.4348 17.2079 10.8051 17.1693L10.8925 17.1648L22.9462 17.1648C24.1312 17.1648 25.0918 16.2042 25.0918 15.0192V10.728C25.0918 10.333 25.412 10.0128 25.807 10.0128H27.9526C28.3476 10.0128 28.6678 10.333 28.6678 10.728V15.0192C28.6678 15.778 28.5201 16.5022 28.2519 17.1648L42.9988 17.1648V13.5888C42.9988 11.542 41.4699 10.0128 39.4235 10.0128H31.2003C30.5567 10.0128 30.4327 9.43603 30.8427 8.94L36.8649 1.24778C37.1438 0.910509 37.5587 0.7152 37.9961 0.7152H40.7432C41.2958 0.7152 41.5986 1.35888 41.2465 1.78478L37.6358 6.4368H39.4235C43.5238 6.4368 46.5741 9.4876 46.5741 13.5888V20.0256C46.5741 20.441 46.2745 20.7408 45.8591 20.7408L27.9729 20.7408C27.7382 20.7408 27.5185 20.6257 27.3849 20.4327L26.654 19.377C25.6554 20.2275 24.3607 20.7408 22.9462 20.7408H17.3228L17.328 20.7669Z" fill="#39AE00"/>
<path d="M207.753 7.06175C207.715 6.69317 207.429 6.4368 207.043 6.4368H201.322L201.235 6.44129C200.864 6.47988 200.607 6.76375 200.607 7.14874V9.28454L200.612 9.37155C200.65 9.74023 200.935 9.99648 201.322 9.99648H207.043L207.13 9.99199C207.5 9.95342 207.758 9.66967 207.758 9.28454V7.14874L207.753 7.06175Z" fill="#39AE00"/>
<path d="M149.827 22.8864C150.213 22.8864 150.499 23.1428 150.537 23.5114L150.542 23.5983V25.7341C150.542 26.1193 150.284 26.403 149.914 26.4416L149.827 26.4461H144.106C143.719 26.4461 143.434 26.1898 143.396 25.8212L143.391 25.7341V23.5983C143.391 23.2134 143.648 22.9295 144.019 22.8909L144.106 22.8864H149.827Z" fill="#39AE00"/>
<path d="M139.811 3.48575C139.772 3.11717 139.487 2.8608 139.1 2.8608H136.954L136.867 2.86529C136.497 2.90387 136.239 3.18774 136.239 3.57274V5.70854L136.244 5.79555C136.282 6.16423 136.567 6.42048 136.954 6.42048H139.1L139.187 6.41599C139.558 6.37742 139.815 6.09366 139.815 5.70854V3.57274L139.811 3.48575Z" fill="#39AE00"/>
<path d="M177.362 2.8608C177.749 2.8608 178.034 3.11717 178.073 3.48575L178.078 3.57274V5.70854C178.078 6.09366 177.82 6.37742 177.45 6.41599L177.362 6.42048H174.86C174.473 6.42048 174.188 6.16423 174.149 5.79555L174.145 5.70854V3.57274C174.145 3.18774 174.402 2.90387 174.772 2.86529L174.86 2.8608H177.362Z" fill="#39AE00"/>
<path d="M160.191 0.7152C159.97 0.7152 159.761 0.817097 159.626 0.99131L155.059 6.86343C154.967 6.98088 155.051 7.152 155.2 7.152H155.915C156.136 7.152 156.344 7.05011 156.479 6.87589L161.047 1.00377C161.138 0.886327 161.054 0.7152 160.906 0.7152H160.191Z" fill="#39AE00"/>
<path fill-rule="evenodd" clip-rule="evenodd" d="M232.375 17.1648C232.643 16.5022 232.791 15.778 232.791 15.0192V12.8736C232.791 9.71365 230.229 7.152 227.07 7.152C223.91 7.152 221.348 9.71365 221.348 12.8736V15.0192C221.348 15.778 221.496 16.5022 221.764 17.1648H216.613C216.881 16.5022 217.029 15.778 217.029 15.0192V10.728C217.029 10.333 216.709 10.0128 216.314 10.0128H214.168C213.773 10.0128 213.453 10.333 213.453 10.728V15.0192C213.453 16.2042 212.492 17.1648 211.307 17.1648H197.031C195.846 17.1648 194.885 16.2042 194.885 15.0192V10.728C194.885 10.333 194.565 10.0128 194.17 10.0128H192.025C191.63 10.0128 191.31 10.333 191.31 10.728V15.0192C191.31 18.1792 193.871 20.7408 197.031 20.7408H211.307C212.721 20.7408 214.015 20.2281 215.013 19.3786L215.743 20.4327C215.877 20.6257 216.096 20.7408 216.331 20.7408L242.801 20.7408C244.48 20.7408 245.983 20.2291 247.173 19.3431L247.927 20.4327C248.061 20.6257 248.28 20.7408 248.515 20.7408H252.789C254.203 20.7408 255.497 20.2282 256.495 19.3787L257.225 20.4327C257.358 20.6257 257.578 20.7408 257.813 20.7408H260.646C262.066 20.7408 263.365 20.2237 264.365 19.3676L265.102 20.4327C265.236 20.6257 265.456 20.7408 265.69 20.7408H266.378C269.538 20.7408 272.1 18.1792 272.1 15.0192V10.728C272.1 10.333 271.779 10.0128 271.384 10.0128H269.239C268.844 10.0128 268.524 10.333 268.524 10.728V15.0192C268.524 16.2042 267.563 17.1648 266.378 17.1648H265.952C266.22 16.5022 266.368 15.778 266.368 15.0192V10.728C266.368 10.333 266.047 10.0128 265.652 10.0128H263.507C263.112 10.0128 262.792 10.333 262.792 10.728V15.0192C262.792 16.2042 261.831 17.1648 260.646 17.1648H258.095C258.363 16.5022 258.511 15.778 258.511 15.0192V10.728C258.511 10.333 258.191 10.0128 257.796 10.0128H255.65C255.255 10.0128 254.935 10.333 254.935 10.728V15.0192C254.935 16.2042 253.974 17.1648 252.789 17.1648H249.065C249.633 16.1271 249.951 14.9127 249.951 13.5888V12.8736C249.951 8.7724 246.901 5.7216 242.801 5.7216H241.013L244.624 1.06958C244.976 0.64368 244.673 0 244.12 0H241.373C240.936 0 240.521 0.195309 240.242 0.532583L234.22 8.2248C233.81 8.72083 233.934 9.2976 234.577 9.2976H242.801C244.847 9.2976 246.376 10.8268 246.376 12.8736V13.5888C246.376 15.6356 244.847 17.1648 242.801 17.1648L232.375 17.1648ZM229.215 15.0192V12.8736C229.215 11.6886 228.255 10.728 227.07 10.728C225.885 10.728 224.924 11.6886 224.924 12.8736V15.0192C224.924 16.2042 225.885 17.1648 227.07 17.1648C228.255 17.1648 229.215 16.2042 229.215 15.0192Z" fill="#39AE00"/>
<path fill-rule="evenodd" clip-rule="evenodd" d="M104.51 17.1648V12.8736C104.51 9.71365 101.948 7.152 98.7881 7.152C95.6282 7.152 93.0665 9.71365 93.0665 12.8736V15.0192C93.0665 18.1792 95.6282 20.7408 98.7881 20.7408C99.3758 20.7408 99.9428 20.6522 100.476 20.4876C99.8643 21.5153 98.746 22.1712 97.4057 22.1712H94.3762C93.7326 22.1712 93.6086 22.748 94.0186 23.244L95.5488 25.1986C95.8199 25.5449 96.2353 25.7472 96.6751 25.7472H97.4057C100.751 25.7472 103.398 23.7162 104.259 20.7408H108.055C109.469 20.7408 110.762 20.2282 111.761 19.3787L112.49 20.4327C112.624 20.6257 112.844 20.7408 113.079 20.7408H115.912C117.332 20.7408 118.631 20.2237 119.631 19.3676L120.368 20.4327C120.502 20.6257 120.721 20.7408 120.956 20.7408H121.644C124.804 20.7408 127.365 18.1792 127.365 15.0192V10.728C127.365 10.333 127.045 10.0128 126.65 10.0128H124.505C124.11 10.0128 123.789 10.333 123.789 10.728V15.0192C123.789 16.2042 122.829 17.1648 121.644 17.1648H121.218C121.486 16.5022 121.633 15.778 121.633 15.0192V10.728C121.633 10.333 121.313 10.0128 120.918 10.0128H118.773C118.378 10.0128 118.057 10.333 118.057 10.728V15.0192C118.057 16.2042 117.097 17.1648 115.912 17.1648H113.361C113.629 16.5022 113.777 15.778 113.777 15.0192V10.728C113.777 10.333 113.456 10.0128 113.061 10.0128H110.916C110.521 10.0128 110.201 10.333 110.201 10.728V15.0192C110.201 16.2042 109.24 17.1648 108.055 17.1648H104.51ZM100.934 12.8736V15.0192C100.934 16.2042 99.9731 17.1648 98.7881 17.1648C97.6031 17.1648 96.6425 16.2042 96.6425 15.0192V12.8736C96.6425 11.6886 97.6031 10.728 98.7881 10.728C99.9731 10.728 100.934 11.6886 100.934 12.8736Z" fill="#39AE00"/>
<path d="M170.1 18.5546L171.401 20.4327C171.534 20.6257 171.754 20.7408 171.989 20.7408H176.978C180.138 20.7408 182.7 18.1792 182.7 15.0192V10.728C182.7 10.333 182.379 10.0128 181.984 10.0128H179.839C179.444 10.0128 179.124 10.333 179.124 10.728V15.0192C179.124 16.2042 178.163 17.1648 176.978 17.1648H171.108C171.677 16.1271 171.995 14.9127 171.995 13.5888V12.8736C171.995 8.7724 168.944 5.7216 164.844 5.7216H163.056L166.667 1.06958C167.019 0.64368 166.716 0 166.164 0H163.417C162.979 0 162.564 0.195309 162.285 0.532583L156.263 8.2248C155.853 8.72083 155.977 9.2976 156.621 9.2976H164.844C166.89 9.2976 168.419 10.8268 168.419 12.8736V13.5888C168.419 15.6356 166.89 17.1648 164.844 17.1648H152.96C153.229 16.5022 153.376 15.778 153.376 15.0192V10.728C153.376 10.333 153.056 10.0128 152.661 10.0128H150.516C150.121 10.0128 149.8 10.333 149.8 10.728V15.0192C149.8 16.2042 148.84 17.1648 147.655 17.1648H139.862V10.728C139.862 10.333 139.541 10.0128 139.146 10.0128H137.001C136.606 10.0128 136.286 10.333 136.286 10.728V19.3104C136.286 21.3572 134.758 22.8864 132.711 22.8864H129.682C129.038 22.8864 128.914 23.4632 129.324 23.9592L130.854 25.9138C131.125 26.2601 131.541 26.4624 131.981 26.4624H132.711C136.811 26.4624 139.862 23.4116 139.862 19.3104L139.862 19.298L140.647 20.4327C140.781 20.6257 141 20.7408 141.235 20.7408H147.655C149.089 20.7408 150.401 20.2128 151.405 19.3405L152.501 20.7408H164.844C166.972 20.7408 168.818 19.9188 170.1 18.5546Z" fill="#39AE00"/>
<path d="M79.5945 20.4327L79.4266 20.1902C79.024 23.8404 76.1251 26.4624 72.3239 26.4624H71.5933C71.1535 26.4624 70.7381 26.2601 70.467 25.9138L68.9368 23.9592C68.5267 23.4632 68.6507 22.8864 69.2943 22.8864H72.3239C74.3703 22.8864 75.8992 21.3572 75.8992 19.3104L75.8985 10.728C75.8985 10.333 76.2187 10.0128 76.6137 10.0128H78.7593C79.1543 10.0128 79.4745 10.333 79.4745 10.728V17.1648H85.1718C86.3568 17.1648 87.3174 16.2042 87.3174 15.0192V10.728C87.3174 10.333 87.6376 10.0128 88.0326 10.0128H90.1782C90.5732 10.0128 90.8934 10.333 90.8934 10.728V15.0192C90.8934 18.1792 88.3317 20.7408 85.1718 20.7408H80.1825C79.9478 20.7408 79.7281 20.6257 79.5945 20.4327Z" fill="#39AE00"/>
<path d="M42.5242 23.9592L44.0544 25.9138C44.3255 26.2601 44.7409 26.4624 45.1807 26.4624H45.9113C50.0116 26.4624 53.0619 23.4116 53.0619 19.3104V10.728C53.0619 10.333 52.7417 10.0128 52.3467 10.0128H50.2011C49.8061 10.0128 49.4859 10.333 49.4859 10.728V19.3104C49.4859 21.3572 47.9577 22.8864 45.9113 22.8864H42.8817C42.2382 22.8864 42.1142 23.4632 42.5242 23.9592Z" fill="#39AE00"/>
<path d="M185.588 2.1456C185.193 2.1456 184.873 2.46581 184.873 2.8608V20.0256C184.873 20.4206 185.193 20.7408 185.588 20.7408H187.734C188.128 20.7408 188.449 20.4206 188.449 20.0256V2.8608C188.449 2.46581 188.128 2.1456 187.734 2.1456H185.588Z" fill="#39AE00"/>
</svg>
